<svg width="787" height="207" viewBox="0 0 787 207" fill="none" xmlns="http://www.w3.org/2000/svg">
<path d="M183.322 152.602V108.59H192.67V152.602H183.322Z" fill="white"/>
<path d="M242.938 152.602H231.057L211.879 119.307H211.607C211.989 125.187 212.18 129.382 212.18 131.89V152.602H203.827V108.59H215.618L234.766 141.554H234.978C234.676 135.834 234.525 131.79 234.525 129.422V108.59H242.938L242.938 152.602Z" fill="white"/>
<path d="M280.029 140.381C280.029 144.354 278.592 147.485 275.717 149.773C272.863 152.061 268.882 153.205 263.776 153.205C259.072 153.205 254.91 152.322 251.292 150.556V141.886C254.267 143.211 256.78 144.144 258.83 144.686C260.901 145.227 262.791 145.498 264.5 145.498C266.55 145.498 268.118 145.107 269.204 144.324C270.309 143.542 270.862 142.378 270.862 140.832C270.862 139.969 270.621 139.207 270.139 138.544C269.656 137.862 268.942 137.21 267.998 136.588C267.073 135.966 265.173 134.972 262.298 133.607C259.604 132.343 257.584 131.129 256.237 129.965C254.89 128.801 253.815 127.446 253.011 125.901C252.207 124.355 251.804 122.549 251.804 120.482C251.804 116.589 253.121 113.528 255.755 111.301C258.408 109.073 262.067 107.959 266.731 107.959C269.023 107.959 271.204 108.23 273.275 108.772C275.365 109.314 277.547 110.076 279.818 111.06L276.803 118.315C274.451 117.351 272.501 116.679 270.953 116.298C269.425 115.916 267.917 115.726 266.43 115.726C264.66 115.726 263.303 116.137 262.359 116.96C261.414 117.783 260.941 118.857 260.941 120.181C260.941 121.004 261.132 121.726 261.514 122.349C261.896 122.951 262.499 123.543 263.324 124.125C264.168 124.687 266.148 125.71 269.264 127.195C273.385 129.162 276.21 131.139 277.738 133.126C279.266 135.093 280.029 137.511 280.029 140.381Z" fill="white"/>
<path d="M304.907 152.602H295.559V116.357H283.587V108.59H316.878V116.357H304.907V152.602Z" fill="white"/>
<path d="M323.603 152.602V108.59H332.951V152.602H323.603Z" fill="white"/>
<path d="M361.116 152.602H351.768V116.357H339.796V108.59H373.087V116.357H361.116V152.602Z" fill="white"/>
<path d="M415.696 108.59V137.068C415.696 140.319 414.963 143.169 413.495 145.618C412.048 148.066 409.947 149.942 407.193 151.247C404.439 152.551 401.182 153.204 397.423 153.204C391.753 153.204 387.351 151.759 384.215 148.869C381.079 145.959 379.51 141.985 379.51 136.948V108.59H388.828V135.533C388.828 138.925 389.512 141.413 390.879 142.999C392.246 144.584 394.508 145.377 397.664 145.377C400.719 145.377 402.931 144.584 404.298 142.999C405.685 141.393 406.379 138.884 406.379 135.473V108.59H415.696Z" fill="white"/>
<path d="M443.499 152.602H434.151V116.357H422.18V108.59H455.471V116.357H443.499V152.602Z" fill="white"/>
<path d="M502.211 130.536C502.211 137.821 500.401 143.42 496.783 147.333C493.164 151.247 487.978 153.204 481.223 153.204C474.468 153.204 469.282 151.247 465.663 147.333C462.044 143.42 460.235 137.801 460.235 130.475C460.235 123.15 462.044 117.561 465.663 113.707C469.302 109.834 474.508 107.897 481.283 107.897C488.058 107.897 493.235 109.844 496.813 113.738C500.412 117.631 502.211 123.23 502.211 130.536ZM470.035 130.536C470.035 135.452 470.97 139.155 472.84 141.644C474.71 144.132 477.504 145.377 481.223 145.377C488.681 145.377 492.41 140.43 492.41 130.536C492.41 120.621 488.701 115.664 481.283 115.664C477.564 115.664 474.76 116.918 472.87 119.427C470.98 121.916 470.035 125.619 470.035 130.536Z" fill="white"/>
<path d="M536.648 152.602H527.45V108.59H552.72V116.236H536.648V127.585H551.605V135.202H536.648V152.602Z" fill="white"/>
<path d="M586.735 152.602H561.345V108.59H586.735V116.236H570.693V125.9H585.62V133.546H570.693V144.895H586.735V152.602Z" fill="white"/>
<path d="M632.541 130.174C632.541 137.419 630.47 142.968 626.329 146.822C622.208 150.675 616.247 152.602 608.447 152.602H595.963V108.59H609.804C617.001 108.59 622.59 110.486 626.57 114.28C630.551 118.073 632.541 123.371 632.541 130.174ZM622.831 130.415C622.831 120.963 618.649 116.236 610.286 116.236H605.311V144.895H609.322C618.328 144.895 622.831 140.068 622.831 130.415Z" fill="white"/>
<path d="M667.068 152.602H641.678V108.59H667.068V116.236H651.026V125.9H665.952V133.546H651.026V144.895H667.068V152.602Z" fill="white"/>
<path d="M685.644 128.127H688.659C691.615 128.127 693.796 127.636 695.203 126.652C696.61 125.669 697.314 124.123 697.314 122.016C697.314 119.929 696.59 118.444 695.143 117.561C693.715 116.678 691.494 116.236 688.478 116.236H685.644V128.127ZM685.644 135.713V152.602H676.296V108.59H689.142C695.132 108.59 699.565 109.684 702.44 111.871C705.315 114.039 706.752 117.34 706.752 121.775C706.752 124.364 706.039 126.672 704.611 128.699C703.184 130.706 701.164 132.282 698.55 133.425C705.184 143.32 709.506 149.712 711.517 152.602H701.143L690.619 135.713H685.644Z" fill="white"/>
<path d="M743.933 152.603L740.737 142.126H724.664L721.468 152.603H711.396L726.956 108.41H738.385L754.005 152.603H743.933ZM738.505 134.299C735.55 124.807 733.882 119.438 733.5 118.194C733.138 116.95 732.876 115.966 732.716 115.244C732.052 117.813 730.152 124.165 727.016 134.299H738.505Z" fill="white"/>
<path d="M759.523 152.602V108.59H768.871V144.895H786.753V152.602H759.523Z" fill="white"/>
<path d="M187.53 191.618V205.734H183.577V171.792H192.902C197.072 171.792 200.15 172.589 202.134 174.183C204.134 175.777 205.134 178.176 205.134 181.38C205.134 185.869 202.855 188.902 198.297 190.481L207.53 205.734H202.855L194.623 191.618H187.53ZM187.53 188.229H192.948C195.739 188.229 197.786 187.679 199.088 186.58C200.39 185.466 201.041 183.802 201.041 181.589C201.041 179.345 200.375 177.727 199.041 176.737C197.724 175.746 195.6 175.251 192.669 175.251H187.53V188.229Z" fill="white"/>
<path d="M216.343 205.732H212.483V180.288H216.343V205.732ZM212.157 173.393C212.157 172.51 212.374 171.868 212.808 171.466C213.243 171.048 213.785 170.839 214.436 170.839C215.056 170.839 215.591 171.048 216.041 171.466C216.491 171.884 216.715 172.526 216.715 173.393C216.715 174.259 216.491 174.909 216.041 175.343C215.591 175.761 215.056 175.97 214.436 175.97C213.785 175.97 213.243 175.761 212.808 175.343C212.374 174.909 212.157 174.259 212.157 173.393Z" fill="white"/>
<path d="M246.482 192.989C246.482 197.137 245.436 200.379 243.343 202.716C241.25 205.038 238.358 206.198 234.669 206.198C232.39 206.198 230.366 205.664 228.599 204.597C226.831 203.529 225.467 201.996 224.506 200C223.545 198.003 223.064 195.666 223.064 192.989C223.064 188.841 224.103 185.614 226.18 183.308C228.258 180.986 231.142 179.825 234.831 179.825C238.397 179.825 241.227 181.009 243.32 183.377C245.428 185.745 246.482 188.949 246.482 192.989ZM227.064 192.989C227.064 196.239 227.715 198.715 229.018 200.418C230.32 202.12 232.234 202.971 234.762 202.971C237.289 202.971 239.203 202.128 240.506 200.441C241.823 198.738 242.482 196.254 242.482 192.989C242.482 189.754 241.823 187.301 240.506 185.629C239.203 183.942 237.273 183.099 234.715 183.099C232.188 183.099 230.281 183.927 228.994 185.583C227.707 187.239 227.064 189.707 227.064 192.989Z" fill="white"/>
<path d="M281.225 187.95H292.783V204.457C290.985 205.029 289.155 205.463 287.295 205.757C285.434 206.051 283.279 206.198 280.83 206.198C275.683 206.198 271.675 204.673 268.807 201.624C265.939 198.56 264.505 194.273 264.505 188.763C264.505 185.234 265.21 182.146 266.621 179.5C268.047 176.838 270.094 174.81 272.76 173.417C275.427 172.009 278.551 171.305 282.132 171.305C285.76 171.305 289.14 171.97 292.271 173.301L290.737 176.784C287.667 175.483 284.714 174.833 281.876 174.833C277.737 174.833 274.504 176.064 272.179 178.525C269.853 180.986 268.691 184.398 268.691 188.763C268.691 193.344 269.807 196.819 272.039 199.187C274.287 201.555 277.582 202.739 281.923 202.739C284.279 202.739 286.582 202.468 288.83 201.926V191.479H281.225V187.95Z" fill="white"/>
<path d="M312.015 179.825C313.147 179.825 314.162 179.918 315.062 180.104L314.527 183.679C313.473 183.447 312.542 183.331 311.736 183.331C309.674 183.331 307.907 184.167 306.434 185.838C304.977 187.51 304.248 189.591 304.248 192.083V205.734H300.387V180.289H303.574L304.015 185.002H304.202C305.147 183.346 306.287 182.069 307.62 181.172C308.953 180.274 310.418 179.825 312.015 179.825Z" fill="white"/>
<path d="M335.597 205.735L334.829 202.113H334.643C333.372 203.707 332.1 204.79 330.829 205.363C329.573 205.92 328 206.199 326.108 206.199C323.581 206.199 321.597 205.549 320.155 204.249C318.729 202.949 318.015 201.099 318.015 198.7C318.015 193.562 322.132 190.869 330.364 190.621L334.689 190.482V188.903C334.689 186.906 334.255 185.436 333.387 184.492C332.534 183.532 331.162 183.053 329.271 183.053C327.147 183.053 324.744 183.703 322.062 185.003L320.876 182.054C322.132 181.373 323.504 180.839 324.992 180.452C326.496 180.066 328 179.872 329.504 179.872C332.542 179.872 334.79 180.545 336.248 181.892C337.72 183.238 338.457 185.397 338.457 188.369V205.735H335.597ZM326.876 203.018C329.279 203.018 331.163 202.361 332.527 201.045C333.907 199.729 334.597 197.888 334.597 195.52V193.221L330.736 193.384C327.667 193.492 325.449 193.972 324.085 194.823C322.736 195.659 322.062 196.967 322.062 198.746C322.062 200.139 322.481 201.2 323.318 201.927C324.17 202.654 325.356 203.018 326.876 203.018Z" fill="white"/>
<path d="M363.875 205.734V189.274C363.875 187.2 363.402 185.652 362.456 184.631C361.51 183.609 360.03 183.099 358.014 183.099C355.348 183.099 353.394 183.818 352.154 185.258C350.914 186.697 350.293 189.073 350.293 192.385V205.734H346.433V180.29H349.573L350.2 183.772H350.387C351.177 182.518 352.286 181.551 353.712 180.87C355.138 180.174 356.728 179.825 358.479 179.825C361.549 179.825 363.859 180.568 365.41 182.054C366.96 183.524 367.735 185.885 367.735 189.135V205.734H363.875Z" fill="white"/>
<path d="M392.991 202.32H392.781C390.998 204.905 388.332 206.197 384.781 206.197C381.448 206.197 378.851 205.06 376.991 202.785C375.146 200.51 374.224 197.275 374.224 193.081C374.224 188.886 375.154 185.628 377.014 183.307C378.875 180.985 381.464 179.824 384.781 179.824C388.239 179.824 390.89 181.078 392.735 183.585H393.037L392.874 181.751L392.781 179.964V169.609H396.642V205.733H393.502L392.991 202.32ZM385.27 202.97C387.905 202.97 389.812 202.259 390.991 200.835C392.184 199.395 392.781 197.081 392.781 193.893V193.081C392.781 189.474 392.177 186.905 390.967 185.373C389.774 183.825 387.859 183.051 385.223 183.051C382.96 183.051 381.223 183.934 380.014 185.698C378.82 187.447 378.224 189.923 378.224 193.127C378.224 196.377 378.82 198.83 380.014 200.486C381.208 202.142 382.96 202.97 385.27 202.97Z" fill="white"/>
<path d="M415.618 206.198C411.851 206.198 408.874 205.053 406.688 202.762C404.517 200.472 403.432 197.291 403.432 193.221C403.432 189.119 404.44 185.861 406.455 183.447C408.486 181.032 411.207 179.825 414.618 179.825C417.812 179.825 420.339 180.878 422.199 182.983C424.06 185.072 424.99 187.835 424.99 191.271V193.708H407.432C407.51 196.695 408.262 198.963 409.688 200.511C411.13 202.058 413.153 202.832 415.757 202.832C418.501 202.832 421.215 202.259 423.897 201.114V204.55C422.532 205.138 421.238 205.556 420.013 205.804C418.804 206.067 417.339 206.198 415.618 206.198ZM414.571 183.052C412.525 183.052 410.889 183.718 409.665 185.049C408.455 186.38 407.742 188.222 407.525 190.574H420.85C420.85 188.144 420.308 186.287 419.222 185.002C418.137 183.702 416.587 183.052 414.571 183.052Z" fill="white"/>
<path d="M461.361 202.32H461.152C459.369 204.905 456.702 206.197 453.152 206.197C449.818 206.197 447.222 205.06 445.361 202.785C443.516 200.51 442.594 197.275 442.594 193.081C442.594 188.886 443.524 185.628 445.384 183.307C447.245 180.985 449.834 179.824 453.152 179.824C456.609 179.824 459.26 181.078 461.105 183.585H461.407L461.245 181.751L461.152 179.964V169.609H465.012V205.733H461.873L461.361 202.32ZM453.64 202.97C456.276 202.97 458.183 202.259 459.361 200.835C460.555 199.395 461.152 197.081 461.152 193.893V193.081C461.152 189.474 460.547 186.905 459.338 185.373C458.144 183.825 456.229 183.051 453.594 183.051C451.33 183.051 449.594 183.934 448.384 185.698C447.19 187.447 446.594 189.923 446.594 193.127C446.594 196.377 447.19 198.83 448.384 200.486C449.578 202.142 451.33 202.97 453.64 202.97Z" fill="white"/>
<path d="M495.221 192.989C495.221 197.137 494.174 200.379 492.082 202.716C489.989 205.038 487.097 206.198 483.407 206.198C481.128 206.198 479.105 205.664 477.338 204.597C475.57 203.529 474.206 201.996 473.245 200C472.284 198.003 471.803 195.666 471.803 192.989C471.803 188.841 472.842 185.614 474.919 183.308C476.997 180.986 479.88 179.825 483.57 179.825C487.136 179.825 489.965 181.009 492.058 183.377C494.167 185.745 495.221 188.949 495.221 192.989ZM475.803 192.989C475.803 196.239 476.454 198.715 477.756 200.418C479.058 202.12 480.973 202.971 483.5 202.971C486.027 202.971 487.942 202.128 489.244 200.441C490.562 198.738 491.221 196.254 491.221 192.989C491.221 189.754 490.562 187.301 489.244 185.629C487.942 183.942 486.012 183.099 483.454 183.099C480.927 183.099 479.02 183.927 477.733 185.583C476.446 187.239 475.803 189.707 475.803 192.989Z" fill="white"/>
<path d="M541.568 205.734H537.057L518.476 177.248H518.29C518.538 180.591 518.662 183.655 518.662 186.441V205.734H515.011V171.792H519.476L538.01 200.162H538.196C538.165 199.744 538.096 198.405 537.987 196.145C537.879 193.87 537.84 192.245 537.871 191.27V171.792H541.568L541.568 205.734Z" fill="white"/>
<path d="M572.335 192.989C572.335 197.137 571.288 200.379 569.195 202.716C567.102 205.038 564.211 206.198 560.521 206.198C558.242 206.198 556.219 205.664 554.452 204.597C552.684 203.529 551.32 201.996 550.359 200C549.397 198.003 548.917 195.666 548.917 192.989C548.917 188.841 549.955 185.614 552.033 183.308C554.11 180.986 556.994 179.825 560.684 179.825C564.25 179.825 567.079 181.009 569.172 183.377C571.281 185.745 572.335 188.949 572.335 192.989ZM552.917 192.989C552.917 196.239 553.568 198.715 554.87 200.418C556.172 202.12 558.087 202.971 560.614 202.971C563.141 202.971 565.056 202.128 566.358 200.441C567.676 198.738 568.335 196.254 568.335 192.989C568.335 189.754 567.676 187.301 566.358 185.629C565.056 183.942 563.126 183.099 560.568 183.099C558.041 183.099 556.134 183.927 554.847 185.583C553.56 187.239 552.917 189.707 552.917 192.989Z" fill="white"/>
<path d="M590.8 179.825C591.932 179.825 592.947 179.918 593.846 180.104L593.311 183.679C592.257 183.447 591.327 183.331 590.521 183.331C588.459 183.331 586.691 184.167 585.219 185.838C583.761 187.51 583.033 189.591 583.033 192.083V205.734H579.172V180.289H582.358L582.8 185.002H582.986C583.932 183.346 585.071 182.069 586.405 181.172C587.738 180.274 589.203 179.825 590.8 179.825Z" fill="white"/>
<path d="M606.938 203.019C607.62 203.019 608.28 202.972 608.915 202.88C609.551 202.771 610.055 202.663 610.427 202.554V205.503C610.008 205.704 609.388 205.866 608.566 205.99C607.76 206.13 607.031 206.199 606.38 206.199C601.45 206.199 598.985 203.607 598.985 198.422V183.285H595.334V181.428L598.985 179.826L600.613 174.394H602.845V180.29H610.241V183.285H602.845V198.259C602.845 199.792 603.21 200.968 603.938 201.788C604.667 202.608 605.667 203.019 606.938 203.019Z" fill="white"/>
<path d="M626.31 206.198C622.543 206.198 619.566 205.053 617.38 202.762C615.21 200.472 614.125 197.291 614.125 193.221C614.125 189.119 615.132 185.861 617.148 183.447C619.179 181.032 621.9 179.825 625.31 179.825C628.504 179.825 631.031 180.878 632.891 182.983C634.752 185.072 635.682 187.835 635.682 191.271V193.708H618.124C618.202 196.695 618.954 198.963 620.38 200.511C621.822 202.058 623.845 202.832 626.45 202.832C629.194 202.832 631.907 202.259 634.589 201.114V204.55C633.225 205.138 631.93 205.556 630.706 205.804C629.496 206.067 628.031 206.198 626.31 206.198ZM625.264 183.052C623.217 183.052 621.582 183.718 620.357 185.049C619.148 186.38 618.434 188.222 618.217 190.574H631.543C631.543 188.144 631 186.287 629.915 185.002C628.83 183.702 627.279 183.052 625.264 183.052Z" fill="white"/>
<path d="M99.4325 42.1933C99.4325 44.7617 97.5979 46.5962 95.0295 46.5962H59.4393C56.871 46.5962 55.0364 44.7617 55.0364 42.1933V6.60304C55.0364 4.03468 56.871 2.2002 59.4393 2.2002H95.0295C97.5979 2.2002 99.4325 4.03468 99.4325 6.60304V42.1933Z" fill="#359830"/>
<path d="M152.634 42.1933C152.634 44.7617 150.8 46.5962 148.231 46.5962H112.641C110.073 46.5962 108.238 44.7617 108.238 42.1933V6.60304C108.238 4.03468 110.073 2.2002 112.641 2.2002H148.231C150.8 2.2002 152.634 4.03468 152.634 6.60304V42.1933Z" fill="#359830"/>
<path d="M152.634 148.231C152.634 150.8 150.8 152.634 148.231 152.634H112.641C110.073 152.634 108.238 150.8 108.238 148.231V112.641C108.238 110.073 110.073 108.238 112.641 108.238H148.231C150.8 108.238 152.634 110.073 152.634 112.641V148.231Z" fill="#359830"/>
<path d="M46.2306 95.0293C46.2306 97.5976 44.396 99.4322 41.8276 99.4322H6.23743C3.66907 99.4322 1.83447 97.5976 1.83447 95.0293V59.439C1.83447 56.8706 3.66907 55.0361 6.23743 55.0361H41.8276C44.396 55.0361 46.2306 56.8706 46.2306 59.439V95.0293Z" fill="#359830"/>
<path d="M99.4325 95.0293C99.4325 97.5976 97.5979 99.4322 95.0295 99.4322H59.4393C56.871 99.4322 55.0364 97.5976 55.0364 95.0293V59.439C55.0364 56.8706 56.871 55.0361 59.4393 55.0361H95.0295C97.5979 55.0361 99.4325 56.8706 99.4325 59.439V95.0293Z" fill="#359830"/>
<path d="M46.2306 148.231C46.2306 150.8 44.396 152.634 41.8276 152.634H6.23743C3.66907 152.634 1.83447 150.8 1.83447 148.231V112.641C1.83447 110.073 3.66907 108.238 6.23743 108.238H41.8276C44.396 108.238 46.2306 110.073 46.2306 112.641V148.231Z" fill="#359830"/>
<path d="M99.4325 148.231C99.4325 150.8 97.5979 152.634 95.0295 152.634H59.4393C56.871 152.634 55.0364 150.8 55.0364 148.231V112.641C55.0364 110.073 56.871 108.238 59.4393 108.238H95.0295C97.5979 108.238 99.4325 110.073 99.4325 112.641V148.231Z" fill="#359830"/>
<path d="M46.2306 201.434C46.2306 204.002 44.396 205.837 41.8276 205.837H6.23743C3.66907 205.837 1.83447 204.002 1.83447 201.434V165.843C1.83447 163.275 3.66907 161.44 6.23743 161.44H41.8276C44.396 161.44 46.2306 163.275 46.2306 165.843V201.434Z" fill="#359830"/>
<path d="M99.4325 201.434C99.4325 204.002 97.5979 205.837 95.0295 205.837H59.4393C56.871 205.837 55.0364 204.002 55.0364 201.434V165.843C55.0364 163.275 56.871 161.44 59.4393 161.44H95.0295C97.5979 161.44 99.4325 163.275 99.4325 165.843V201.434Z" fill="#359830"/>
<path d="M48.4321 24.2161C48.4321 37.4248 37.4248 48.432 24.2161 48.432C11.0073 48.432 0 37.4248 0 24.2161C0 11.0073 11.0073 0 24.2161 0C37.7917 0 48.4321 11.0073 48.4321 24.2161Z" fill="#C90C0F"/>
</svg>
